<?xml version="1.0" encoding="UTF-8" standalone="no"?>
<!DOCTYPE svg PUBLIC "-//W3C//DTD SVG 1.1//EN" "http://www.w3.org/Graphics/SVG/1.1/DTD/svg11.dtd">
<svg width="100%" height="100%" viewBox="0 0 49 30" version="1.1" xmlns="http://www.w3.org/2000/svg" xmlnsXlink="http://www.w3.org/1999/xlink" xmlSpace="preserve" xmlnsSerif="http://www.serif.com/" style="fill-rule:evenodd;clip-rule:evenodd;stroke-linejoin:round;stroke-miterlimit:2;">
    <g transform="matrix(1,0,0,1,-276,-245)">
        <g transform="matrix(1,0,0,1,0,-432.362)">
            <g>
                <path id="path274" d="M292.89,705.821L315.554,705.821C315.704,705.821 315.862,705.821 316.007,705.837L316.007,705.821C319.71,705.821 322.722,702.81 322.722,699.107C322.722,695.405 319.71,692.392 316.007,692.392C315.485,692.392 314.94,692.462 314.387,692.598C314.211,692.643 314.02,692.611 313.865,692.508C313.711,692.405 313.607,692.243 313.58,692.061C312.829,687.282 308.775,683.815 303.94,683.815C298.552,683.815 294.17,688.197 294.17,693.585C294.17,693.851 294.189,694.111 294.21,694.37C294.226,694.566 294.155,694.76 294.012,694.897C293.872,695.035 293.677,695.101 293.482,695.081C293.286,695.06 293.09,695.046 292.89,695.046C289.919,695.046 287.501,697.462 287.501,700.433C287.501,703.405 289.919,705.821 292.89,705.821M292.852,693.728C292.852,693.681 292.851,693.633 292.851,693.585C292.851,687.471 297.826,682.497 303.94,682.497C309.198,682.497 313.643,686.108 314.754,691.178C315.178,691.11 315.598,691.075 316.008,691.075C320.438,691.075 324.041,694.677 324.041,699.107C324.041,703.535 320.438,707.138 316.005,707.138L292.89,707.138C289.191,707.138 286.185,704.131 286.185,700.433C286.185,696.748 289.171,693.747 292.853,693.728" style="fill:rgb(53,116,145);fill-rule:nonzero;"/>
                <path id="path278" d="M284.815,686.633C285.227,686.633 285.646,686.668 286.069,686.736C287.182,681.665 291.626,678.054 296.884,678.054C299.174,678.054 301.37,678.746 303.239,680.055C303.536,680.264 303.609,680.675 303.4,680.974C303.19,681.271 302.78,681.344 302.481,681.135C300.836,679.981 298.901,679.373 296.884,679.373C292.049,679.373 287.995,682.84 287.244,687.619C287.215,687.801 287.111,687.963 286.957,688.065C286.805,688.168 286.614,688.199 286.436,688.156C285.884,688.02 285.34,687.951 284.815,687.951C281.114,687.951 278.101,690.964 278.101,694.665C278.101,698.118 280.687,700.989 284.116,701.343C284.479,701.38 284.742,701.704 284.705,702.066C284.67,702.405 284.382,702.658 284.05,702.658C284.026,702.658 284.005,702.657 283.981,702.656C279.877,702.232 276.782,698.796 276.782,694.666C276.782,690.237 280.386,686.633 284.815,686.633" style="fill:rgb(53,116,145);fill-rule:nonzero;"/>
            </g>
        </g>
    </g>
</svg>
