<?xml version="1.0" encoding="UTF-8" standalone="no"?>
<!DOCTYPE svg PUBLIC "-//W3C//DTD SVG 1.1//EN" "http://www.w3.org/Graphics/SVG/1.1/DTD/svg11.dtd">
<svg width="100%" height="100%" viewBox="0 0 47 45" version="1.1" xmlns="http://www.w3.org/2000/svg" xmlnsXlink="http://www.w3.org/1999/xlink" xmlSpace="preserve" xmlnsSerif="http://www.serif.com/" style="fill-rule:evenodd;clip-rule:evenodd;stroke-linejoin:round;stroke-miterlimit:2;">
    <g transform="matrix(1,0,0,1,-93,-246)">
        <g transform="matrix(1,0,0,1,0,-432.362)">
            <path id="path214" d="M106.076,707.787C106.119,707.702 106.137,707.612 106.141,707.522M115.329,707.787C115.371,707.702 115.391,707.614 115.395,707.524" style="fill:rgb(53,116,145);fill-rule:nonzero;"/>
            <path id="path310" d="M108.798,705.648L130.841,705.648C130.988,705.648 131.141,705.648 131.283,705.663L131.283,705.648C134.883,705.648 137.813,702.718 137.813,699.118C137.813,695.518 134.883,692.589 131.283,692.589C130.774,692.589 130.243,692.655 129.709,692.788C129.534,692.831 129.349,692.8 129.199,692.7C129.049,692.6 128.948,692.443 128.922,692.265C128.192,687.618 124.249,684.246 119.547,684.246C114.308,684.246 110.044,688.509 110.044,693.748C110.044,694.006 110.063,694.26 110.083,694.511C110.101,694.701 110.029,694.89 109.893,695.024C109.757,695.156 109.566,695.221 109.377,695.203C109.187,695.181 108.993,695.169 108.798,695.169C105.911,695.169 103.561,697.519 103.561,700.409C103.561,703.298 105.911,705.648 108.798,705.648M108.764,693.886L108.764,693.748C108.764,687.803 113.601,682.964 119.547,682.964C124.659,682.964 128.981,686.476 130.064,691.406C130.477,691.34 130.883,691.305 131.283,691.305C135.592,691.305 139.094,694.81 139.094,699.118C139.094,703.425 135.592,706.929 131.281,706.929L108.798,706.929C105.203,706.929 102.278,704.004 102.278,700.409C102.278,696.823 105.183,693.905 108.764,693.886" style="fill:rgb(53,116,145);fill-rule:nonzero;"/>
            <path id="path314" d="M100.948,686.987C101.348,686.987 101.755,687.019 102.168,687.088C103.25,682.155 107.572,678.643 112.685,678.643C114.91,678.643 117.048,679.317 118.864,680.589C119.154,680.793 119.225,681.192 119.022,681.483C118.818,681.772 118.419,681.843 118.129,681.639C116.529,680.518 114.647,679.927 112.685,679.927C107.983,679.927 104.04,683.298 103.312,687.945C103.282,688.122 103.18,688.279 103.032,688.379C102.882,688.478 102.698,688.51 102.523,688.468C101.988,688.335 101.459,688.268 100.948,688.268C97.348,688.268 94.418,691.198 94.418,694.798C94.418,698.157 96.933,700.948 100.268,701.292C100.62,701.328 100.877,701.644 100.84,701.995C100.807,702.325 100.528,702.57 100.203,702.57C100.182,702.57 100.159,702.57 100.137,702.568C96.145,702.157 93.137,698.816 93.137,694.798C93.137,690.492 96.64,686.987 100.948,686.987" style="fill:rgb(53,116,145);fill-rule:nonzero;"/>
            <path id="path790" d="M106.861,713.049C106.861,714.226 105.902,715.184 104.725,715.184C103.545,715.184 102.59,714.226 102.59,713.049C102.59,711.872 103.545,710.914 104.725,710.914C105.902,710.914 106.861,711.872 106.861,713.049" style="fill:rgb(53,116,145);fill-rule:nonzero;"/>
            <path id="path794" d="M102.313,720.908C102.313,722.086 101.355,723.043 100.177,723.043C98.997,723.043 98.042,722.086 98.042,720.908C98.042,719.732 98.997,718.773 100.177,718.773C101.355,718.773 102.313,719.732 102.313,720.908" style="fill:rgb(53,116,145);fill-rule:nonzero;"/>
            <path id="path798" d="M118.761,713.049C118.761,714.226 117.802,715.184 116.624,715.184C115.444,715.184 114.489,714.226 114.489,713.049C114.489,711.872 115.444,710.914 116.624,710.914C117.802,710.914 118.761,711.872 118.761,713.049" style="fill:rgb(53,116,145);fill-rule:nonzero;"/>
            <path id="path802" d="M114.213,720.908C114.213,722.086 113.254,723.043 112.077,723.043C110.897,723.043 109.942,722.086 109.942,720.908C109.942,719.732 110.897,718.773 112.077,718.773C113.254,718.773 114.213,719.732 114.213,720.908" style="fill:rgb(53,116,145);fill-rule:nonzero;"/>
            <path id="path806" d="M130.562,713.049C130.562,714.226 129.604,715.184 128.426,715.184C127.246,715.184 126.291,714.226 126.291,713.049C126.291,711.872 127.246,710.914 128.426,710.914C129.604,710.914 130.562,711.872 130.562,713.049" style="fill:rgb(53,116,145);fill-rule:nonzero;"/>
            <path id="path810" d="M126.015,720.908C126.015,722.086 125.056,723.043 123.878,723.043C122.698,723.043 121.743,722.086 121.743,720.908C121.743,719.732 122.698,718.773 123.878,718.773C125.056,718.773 126.015,719.732 126.015,720.908" style="fill:rgb(53,116,145);fill-rule:nonzero;"/>
        </g>
    </g>
</svg>
