<?xml version="1.0" encoding="UTF-8" standalone="no"?>
<!DOCTYPE svg PUBLIC "-//W3C//DTD SVG 1.1//EN" "http://www.w3.org/Graphics/SVG/1.1/DTD/svg11.dtd">
<svg width="100%" height="100%" viewBox="0 0 51 39" version="1.1" xmlns="http://www.w3.org/2000/svg" xmlnsXlink="http://www.w3.org/1999/xlink" xmlXpace="preserve" xmlnsSerif="http://www.serif.com/" style="fill-rule:evenodd;clip-rule:evenodd;stroke-linejoin:round;stroke-miterlimit:2;">
    <g transform="matrix(1,0,0,1,-184,-158)">
        <g transform="matrix(1,0,0,1,0,-432.362)">
            <path id="path74" d="M205.833,627.194L226.549,627.193C226.686,627.193 226.83,627.193 226.964,627.208L226.964,627.194C230.348,627.194 233.1,624.441 233.1,621.058C233.1,617.674 230.348,614.921 226.964,614.921C226.486,614.921 225.989,614.983 225.484,615.108C225.32,615.148 225.146,615.119 225.005,615.024C224.865,614.93 224.77,614.783 224.744,614.615C224.059,610.249 220.353,607.079 215.934,607.079C211.01,607.079 207.004,611.085 207.004,616.01C207.004,616.251 207.021,616.49 207.04,616.728C207.055,616.906 206.99,617.083 206.861,617.208C206.733,617.333 206.555,617.393 206.376,617.376C206.198,617.358 206.018,617.345 205.833,617.345C203.119,617.345 200.91,619.555 200.91,622.269C200.91,624.984 203.119,627.194 205.833,627.194M205.8,616.14C205.8,616.098 205.799,616.054 205.799,616.01C205.799,610.421 210.345,605.874 215.934,605.874C220.739,605.874 224.8,609.176 225.818,613.81C226.207,613.746 226.589,613.716 226.964,613.716C231.013,613.716 234.305,617.009 234.305,621.058C234.305,625.105 231.013,628.399 226.964,628.399L226.958,628.399C226.868,628.398 224.552,628.398 221.486,628.398L205.833,628.399C202.454,628.399 199.706,625.649 199.706,622.269C199.706,618.9 202.436,616.159 205.801,616.14" style="fill:rgb(53,116,145);fill-rule:nonzero;"/>
            <path id="path78" d="M193.839,610.056C193.839,604.689 198.206,600.322 203.572,600.322C206.855,600.322 209.696,601.727 211.505,604.469C211.687,604.747 211.611,605.121 211.334,605.304C211.055,605.489 210.681,605.411 210.499,605.134C208.914,602.731 206.447,601.527 203.572,601.527C198.87,601.527 195.044,605.352 195.044,610.056C195.044,612.967 196.506,615.65 198.955,617.229C199.234,617.41 199.315,617.782 199.134,618.061C199.02,618.241 198.826,618.337 198.629,618.337C198.516,618.337 198.402,618.307 198.301,618.241C195.507,616.439 193.839,613.379 193.839,610.056" style="fill:rgb(53,116,145);fill-rule:nonzero;"/>
            <path id="path82" d="M203.444,597.341C203.11,597.341 202.842,597.072 202.842,596.74L202.842,591.926C202.842,591.594 203.11,591.325 203.444,591.325C203.777,591.325 204.047,591.594 204.047,591.926L204.047,596.74C204.047,597.072 203.777,597.341 203.444,597.341" style="fill:rgb(53,116,145);fill-rule:nonzero;"/>
            <path id="path86" d="M196.853,599.217C196.754,599.279 196.646,599.307 196.537,599.307C196.336,599.307 196.138,599.206 196.023,599.022L193.491,594.93C193.317,594.647 193.403,594.276 193.686,594.1C193.969,593.926 194.339,594.012 194.516,594.296L197.048,598.387C197.224,598.671 197.137,599.041 196.853,599.217" style="fill:rgb(53,116,145);fill-rule:nonzero;"/>
            <path id="path90" d="M191.871,604.286C191.776,604.286 191.679,604.262 191.588,604.215L187.343,601.941C187.049,601.785 186.938,601.42 187.095,601.126C187.251,600.832 187.616,600.721 187.911,600.878L192.156,603.152C192.45,603.31 192.561,603.675 192.403,603.967C192.295,604.171 192.086,604.286 191.871,604.286" style="fill:rgb(53,116,145);fill-rule:nonzero;"/>
            <path id="path94" d="M185.502,609.226L185.504,609.226L190.319,609.24C190.652,609.24 190.921,609.511 190.92,609.844C190.919,610.176 190.65,610.445 190.317,610.445L190.316,610.445L185.501,610.431C185.168,610.43 184.899,610.159 184.899,609.825C184.9,609.494 185.169,609.226 185.501,609.226" style="fill:rgb(53,116,145);fill-rule:nonzero;"/>
            <path id="path98" d="M187.401,617.939L191.629,615.628C191.921,615.469 192.287,615.576 192.446,615.869C192.606,616.161 192.499,616.527 192.206,616.686L187.979,618.997C187.887,619.047 187.789,619.069 187.69,619.069C187.479,619.069 187.271,618.957 187.161,618.756C187.002,618.464 187.11,618.098 187.401,617.939" style="fill:rgb(53,116,145);fill-rule:nonzero;"/>
            <path id="path102" d="M219.485,601.776L215.258,604.086C215.165,604.137 215.067,604.16 214.969,604.16C214.757,604.16 214.549,604.046 214.44,603.846C214.28,603.555 214.388,603.189 214.68,603.03L218.908,600.719C219.2,600.559 219.565,600.666 219.725,600.959C219.884,601.25 219.778,601.616 219.485,601.776" style="fill:rgb(53,116,145);fill-rule:nonzero;"/>
            <path id="path106" d="M195.969,620.676C196.147,620.394 196.517,620.307 196.8,620.486C197.082,620.661 197.167,621.034 196.99,621.315L194.437,625.4C194.323,625.582 194.125,625.684 193.925,625.684C193.815,625.684 193.705,625.652 193.607,625.592C193.324,625.415 193.238,625.042 193.415,624.761L195.969,620.676L195.969,620.676Z" style="fill:rgb(53,116,145);fill-rule:nonzero;"/>
            <path id="path110" d="M210.917,599.04C210.804,599.223 210.606,599.324 210.406,599.324C210.297,599.324 210.187,599.294 210.087,599.232C209.805,599.055 209.72,598.684 209.896,598.4L212.451,594.317C212.627,594.034 212.999,593.948 213.281,594.125C213.562,594.302 213.649,594.673 213.471,594.955L210.917,599.04Z" style="fill:rgb(53,116,145);fill-rule:nonzero;"/>
        </g>
    </g>
</svg>
