<?xml version="1.0" encoding="UTF-8" standalone="no"?>
<!DOCTYPE svg PUBLIC "-//W3C//DTD SVG 1.1//EN" "http://www.w3.org/Graphics/SVG/1.1/DTD/svg11.dtd">
<svg width="100%" height="100%" viewBox="0 0 48 43" version="1.1" xmlns="http://www.w3.org/2000/svg" xmlnsXlink="http://www.w3.org/1999/xlink" xmlSpace="preserve" xmlnsSerif="http://www.serif.com/" style="fill-rule:evenodd;clip-rule:evenodd;stroke-linejoin:round;stroke-miterlimit:2;">
    <g transform="matrix(1,0,0,1,-473,-246)">
        <g transform="matrix(1,0,0,1,0,-432.362)">
            <path id="path218" d="M489.242,706.202L511.944,706.202C512.095,706.202 512.253,706.202 512.4,706.218L512.4,706.202C516.108,706.202 519.125,703.185 519.125,699.478C519.125,695.769 516.108,692.753 512.4,692.753C511.874,692.753 511.328,692.822 510.778,692.957C510.598,693.002 510.409,692.969 510.254,692.867C510.099,692.764 509.997,692.602 509.967,692.419C509.215,687.633 505.154,684.159 500.312,684.159C494.915,684.159 490.524,688.549 490.524,693.947C490.524,694.212 490.544,694.474 490.565,694.734C490.58,694.929 490.508,695.123 490.368,695.26C490.228,695.398 490.03,695.464 489.838,695.444C489.642,695.423 489.443,695.411 489.242,695.411C486.267,695.411 483.845,697.831 483.845,700.806C483.845,703.781 486.267,706.202 489.242,706.202M489.206,694.089C489.206,694.042 489.205,693.994 489.205,693.947C489.205,687.822 494.187,682.839 500.312,682.839C505.578,682.839 510.028,686.457 511.145,691.536C511.568,691.467 511.988,691.432 512.401,691.432C516.837,691.432 520.446,695.041 520.446,699.478C520.446,703.913 516.837,707.523 512.397,707.523L489.242,707.523C485.54,707.523 482.526,704.509 482.526,700.806C482.526,697.114 485.518,694.111 489.206,694.089" style="fill:rgb(53,116,145);fill-rule:nonzero;"/>
            <path id="path222" d="M481.155,686.982C481.568,686.982 481.989,687.017 482.411,687.086C483.528,682.007 487.978,678.389 493.244,678.389C495.536,678.389 497.738,679.082 499.609,680.394C499.908,680.604 499.98,681.016 499.771,681.314C499.56,681.612 499.15,681.685 498.85,681.476C497.203,680.32 495.264,679.71 493.244,679.71C488.401,679.71 484.34,683.184 483.589,687.97C483.559,688.154 483.455,688.315 483.301,688.417C483.149,688.52 482.959,688.552 482.776,688.509C482.228,688.371 481.681,688.304 481.155,688.304C477.448,688.304 474.43,691.32 474.43,695.029C474.43,698.486 477.02,701.362 480.455,701.716C480.819,701.755 481.083,702.079 481.045,702.441C481.01,702.781 480.723,703.034 480.389,703.034C480.366,703.034 480.343,703.033 480.32,703.032C476.21,702.607 473.11,699.167 473.11,695.029C473.11,690.592 476.719,686.983 481.155,686.983" style="fill:rgb(53,116,145);fill-rule:nonzero;"/>
            <path id="path298" d="M492.485,710.522C492.168,710.366 491.783,710.493 491.626,710.808L487.305,719.448C487.146,719.766 487.276,720.149 487.592,720.308C487.683,720.353 487.781,720.376 487.878,720.376C488.113,720.376 488.34,720.246 488.452,720.022L492.771,711.382C492.93,711.066 492.802,710.681 492.485,710.522" style="fill:rgb(53,116,145);fill-rule:nonzero;"/>
            <path id="path302" d="M499.69,710.522C499.374,710.366 498.988,710.493 498.83,710.808L494.51,719.448C494.352,719.766 494.48,720.149 494.797,720.308C494.889,720.353 494.987,720.376 495.082,720.376C495.319,720.376 495.544,720.246 495.657,720.022L499.977,711.382C500.135,711.066 500.007,710.681 499.69,710.522" style="fill:rgb(53,116,145);fill-rule:nonzero;"/>
            <path id="path306" d="M506.894,710.522C506.578,710.366 506.193,710.493 506.034,710.808L501.714,719.448C501.556,719.766 501.684,720.149 502.001,720.308C502.093,720.353 502.19,720.376 502.288,720.376C502.523,720.376 502.75,720.246 502.861,720.022L507.18,711.382C507.339,711.066 507.211,710.681 506.894,710.522" style="fill:rgb(53,116,145);fill-rule:nonzero;"/>
        </g>
    </g>
</svg>
