<?xml version="1.0" encoding="UTF-8" standalone="no"?>
<!DOCTYPE svg PUBLIC "-//W3C//DTD SVG 1.1//EN" "http://www.w3.org/Graphics/SVG/1.1/DTD/svg11.dtd">
<svg width="100%" height="100%" viewBox="0 0 47 43" version="1.1" xmlns="http://www.w3.org/2000/svg" xmlnsXlink="http://www.w3.org/1999/xlink" xmlSpace="preserve" xmlnsSerif="http://www.serif.com/" style="fill-rule:evenodd;clip-rule:evenodd;stroke-linejoin:round;stroke-miterlimit:2;">
    <g transform="matrix(1,0,0,1,-471,-156)">
        <g transform="matrix(1,0,0,1,0,-432.362)">
            <path id="path114" d="M494.252,625.823C493.978,625.684 493.644,625.796 493.507,626.07L491.52,630.018C491.384,630.293 491.493,630.626 491.767,630.763C491.849,630.803 491.934,630.823 492.018,630.823C492.219,630.823 492.415,630.711 492.514,630.516L494.498,626.568C494.635,626.295 494.527,625.96 494.252,625.823" style="fill:rgb(53,116,145);fill-rule:nonzero;"/>
            <path id="path118" d="M501.327,625.823C501.051,625.684 500.719,625.796 500.579,626.07L498.596,630.018C498.457,630.293 498.568,630.626 498.846,630.763C498.924,630.803 499.008,630.823 499.093,630.823C499.294,630.823 499.491,630.711 499.587,630.516L501.573,626.568C501.711,626.295 501.599,625.96 501.327,625.823" style="fill:rgb(53,116,145);fill-rule:nonzero;"/>
            <path id="path122" d="M508.402,625.823C508.123,625.684 507.792,625.796 507.655,626.07L505.671,630.018C505.532,630.293 505.643,630.626 505.917,630.763C505.994,630.803 506.083,630.823 506.166,630.823C506.369,630.823 506.566,630.711 506.662,630.516L508.648,626.568C508.786,626.295 508.675,625.96 508.402,625.823" style="fill:rgb(53,116,145);fill-rule:nonzero;"/>
            <path id="path130" d="M491.22,621.97L510.322,621.969C510.449,621.969 510.58,621.969 510.705,621.981L510.705,621.97C513.824,621.97 516.362,619.431 516.362,616.311C516.362,613.192 513.824,610.654 510.705,610.654C510.262,610.654 509.805,610.712 509.34,610.826C509.19,610.862 509.029,610.836 508.9,610.749C508.767,610.665 508.682,610.526 508.656,610.374C508.025,606.346 504.61,603.425 500.534,603.425C495.995,603.425 492.3,607.119 492.3,611.659C492.3,611.881 492.316,612.101 492.337,612.319C492.349,612.484 492.287,612.647 492.169,612.762C492.052,612.879 491.886,612.934 491.721,612.919C491.559,612.9 491.391,612.889 491.22,612.889C488.719,612.889 486.681,614.927 486.681,617.429C486.681,619.932 488.719,621.97 491.22,621.97M491.191,611.779L491.191,611.659C491.191,606.506 495.382,602.314 500.534,602.314C504.966,602.314 508.711,605.356 509.647,609.63C510.006,609.571 510.359,609.542 510.705,609.542C514.436,609.542 517.475,612.579 517.475,616.311C517.475,620.045 514.436,623.081 510.705,623.081L491.22,623.081C488.106,623.081 485.571,620.545 485.571,617.429C485.571,614.324 488.09,611.795 491.191,611.779" style="fill:rgb(53,116,145);fill-rule:nonzero;"/>
            <path id="path134" d="M480.162,606.17C480.162,601.221 484.189,597.194 489.138,597.194C492.164,597.194 494.783,598.49 496.45,601.017C496.619,601.274 496.549,601.619 496.293,601.786C496.037,601.956 495.694,601.887 495.523,601.63C494.062,599.415 491.789,598.305 489.138,598.305C484.802,598.305 481.274,601.832 481.274,606.17C481.274,608.852 482.622,611.325 484.878,612.782C485.137,612.949 485.213,613.291 485.044,613.55C484.938,613.715 484.763,613.805 484.579,613.805C484.475,613.805 484.369,613.776 484.279,613.716C481.7,612.054 480.162,609.234 480.162,606.17" style="fill:rgb(53,116,145);fill-rule:nonzero;"/>
            <path id="path138" d="M489.019,594.446C488.714,594.446 488.463,594.196 488.463,593.89L488.463,589.453C488.463,589.146 488.714,588.899 489.019,588.899C489.326,588.899 489.574,589.146 489.574,589.453L489.574,593.89C489.574,594.196 489.326,594.446 489.019,594.446" style="fill:rgb(53,116,145);fill-rule:nonzero;"/>
            <path id="path142" d="M482.942,596.174C482.851,596.232 482.751,596.258 482.652,596.258C482.466,596.258 482.282,596.166 482.177,595.996L479.842,592.222C479.681,591.962 479.761,591.619 480.022,591.458C480.284,591.296 480.625,591.377 480.787,591.637L483.124,595.411C483.282,595.672 483.204,596.014 482.942,596.174" style="fill:rgb(53,116,145);fill-rule:nonzero;"/>
            <path id="path146" d="M478.349,600.848C478.261,600.848 478.17,600.827 478.088,600.782L474.173,598.687C473.901,598.541 473.8,598.205 473.946,597.935C474.09,597.665 474.426,597.563 474.698,597.707L478.61,599.803C478.883,599.948 478.985,600.285 478.841,600.556C478.739,600.742 478.545,600.848 478.349,600.848" style="fill:rgb(53,116,145);fill-rule:nonzero;"/>
            <path id="path150" d="M472.476,605.403L472.478,605.403L476.917,605.416C477.224,605.417 477.472,605.666 477.472,605.973C477.47,606.28 477.222,606.527 476.917,606.527L476.915,606.527L472.476,606.513C472.169,606.512 471.921,606.262 471.921,605.956C471.923,605.65 472.171,605.403 472.476,605.403" style="fill:rgb(53,116,145);fill-rule:nonzero;"/>
            <path id="path154" d="M474.228,613.437L478.124,611.307C478.393,611.16 478.733,611.259 478.88,611.527C479.026,611.797 478.926,612.135 478.66,612.282L474.76,614.411C474.676,614.459 474.584,614.48 474.494,614.48C474.3,614.48 474.105,614.376 474.004,614.191C473.86,613.921 473.958,613.584 474.228,613.438" style="fill:rgb(53,116,145);fill-rule:nonzero;"/>
            <path id="path158" d="M503.81,598.535L499.911,600.665C499.825,600.711 499.735,600.733 499.645,600.733C499.449,600.733 499.259,600.628 499.158,600.444C499.011,600.175 499.109,599.836 499.38,599.689L503.275,597.56C503.544,597.413 503.884,597.511 504.03,597.78C504.178,598.049 504.08,598.386 503.81,598.535" style="fill:rgb(53,116,145);fill-rule:nonzero;"/>
            <path id="path162" d="M482.127,615.961C482.291,615.7 482.631,615.621 482.892,615.784C483.151,615.946 483.232,616.289 483.068,616.551L480.713,620.316C480.609,620.484 480.426,620.577 480.242,620.577C480.144,620.577 480.041,620.549 479.951,620.492C479.689,620.33 479.608,619.986 479.771,619.727L482.127,615.961Z" style="fill:rgb(53,116,145);fill-rule:nonzero;"/>
            <path id="path166" d="M495.907,596.012C495.805,596.18 495.622,596.272 495.437,596.272C495.336,596.272 495.236,596.246 495.145,596.19C494.885,596.025 494.806,595.682 494.966,595.422L497.325,591.657C497.486,591.397 497.826,591.317 498.09,591.481C498.349,591.642 498.427,591.986 498.266,592.246L495.907,596.012Z" style="fill:rgb(53,116,145);fill-rule:nonzero;"/>
        </g>
    </g>
</svg>
