<?xml version="1.0" encoding="UTF-8" standalone="no"?>
<!DOCTYPE svg PUBLIC "-//W3C//DTD SVG 1.1//EN" "http://www.w3.org/Graphics/SVG/1.1/DTD/svg11.dtd">
<svg width="100%" height="100%" viewBox="0 0 48 45" version="1.1" xmlns="http://www.w3.org/2000/svg" xmlnsXlink="http://www.w3.org/1999/xlink" xmlSpace="preserve" xmlnsSerif="http://www.serif.com/" style="fill-rule:evenodd;clip-rule:evenodd;stroke-linejoin:round;stroke-miterlimit:2;">
    <g transform="matrix(1,0,0,1,-186,-334)">
        <g transform="matrix(1,0,0,1,0,-432.362)">
            <path id="path438" d="M206.244,801.197L226.165,801.196C226.297,801.196 226.434,801.196 226.564,801.211L226.564,801.197C229.816,801.197 232.465,798.55 232.465,795.296C232.465,792.042 229.816,789.396 226.564,789.396C226.104,789.396 225.625,789.455 225.139,789.575C224.981,789.612 224.814,789.585 224.679,789.495C224.545,789.405 224.452,789.262 224.427,789.102C223.769,784.903 220.206,781.856 215.957,781.856C211.221,781.856 207.369,785.707 207.369,790.442C207.369,790.676 207.386,790.906 207.405,791.133C207.419,791.306 207.355,791.475 207.232,791.595C207.109,791.716 206.936,791.773 206.766,791.756C206.594,791.739 206.421,791.727 206.244,791.727C203.632,791.727 201.509,793.851 201.509,796.461C201.509,799.072 203.632,801.197 206.244,801.197M206.212,790.568C206.212,790.526 206.21,790.484 206.21,790.442C206.21,785.069 210.583,780.698 215.958,780.698C220.578,780.698 224.483,783.872 225.462,788.327C225.834,788.267 226.204,788.236 226.564,788.236C230.455,788.236 233.623,791.403 233.623,795.296C233.623,799.188 230.455,802.354 226.564,802.354L206.244,802.354C202.994,802.354 200.351,799.711 200.351,796.461C200.351,793.222 202.977,790.586 206.213,790.568" style="fill:rgb(53,116,145);fill-rule:nonzero;"/>
            <path id="path442" d="M194.709,784.719C194.709,779.557 198.908,775.357 204.07,775.357C207.225,775.357 209.958,776.71 211.697,779.346C211.872,779.612 211.8,779.972 211.533,780.149C211.265,780.325 210.905,780.251 210.729,779.985C209.205,777.674 206.834,776.516 204.07,776.516C199.547,776.516 195.869,780.196 195.869,784.719C195.869,787.517 197.275,790.096 199.629,791.616C199.898,791.787 199.977,792.146 199.802,792.416C199.69,792.587 199.504,792.681 199.315,792.681C199.208,792.681 199.099,792.651 199.003,792.589C196.314,790.855 194.709,787.914 194.709,784.719" style="fill:rgb(53,116,145);fill-rule:nonzero;"/>
            <path id="path446" d="M203.948,772.492C203.626,772.492 203.368,772.233 203.368,771.912L203.368,767.284C203.368,766.964 203.626,766.706 203.948,766.706C204.268,766.706 204.526,766.964 204.526,767.284L204.526,771.912C204.526,772.233 204.268,772.492 203.948,772.492" style="fill:rgb(53,116,145);fill-rule:nonzero;"/>
            <path id="path450" d="M197.61,774.295C197.515,774.354 197.41,774.381 197.305,774.381C197.111,774.381 196.921,774.285 196.811,774.109L194.376,770.173C194.207,769.9 194.291,769.544 194.563,769.375C194.836,769.208 195.192,769.291 195.361,769.564L197.797,773.498C197.965,773.77 197.881,774.126 197.61,774.295" style="fill:rgb(53,116,145);fill-rule:nonzero;"/>
            <path id="path454" d="M192.818,779.169C192.727,779.169 192.635,779.147 192.546,779.099L188.463,776.914C188.181,776.763 188.075,776.413 188.225,776.129C188.376,775.849 188.728,775.742 189.008,775.893L193.093,778.079C193.373,778.229 193.48,778.58 193.331,778.863C193.225,779.058 193.026,779.169 192.818,779.169" style="fill:rgb(53,116,145);fill-rule:nonzero;"/>
            <path id="path458" d="M186.695,783.919L191.327,783.933C191.645,783.933 191.904,784.194 191.904,784.514C191.903,784.832 191.644,785.09 191.324,785.09L186.693,785.078C186.372,785.077 186.113,784.817 186.114,784.497C186.114,784.177 186.38,783.923 186.695,783.919" style="fill:rgb(53,116,145);fill-rule:nonzero;"/>
            <path id="path462" d="M188.52,792.298L192.585,790.077C192.865,789.924 193.218,790.027 193.372,790.307C193.524,790.588 193.42,790.94 193.14,791.093L189.075,793.314C188.988,793.363 188.893,793.385 188.799,793.385C188.594,793.385 188.394,793.277 188.289,793.084C188.135,792.803 188.239,792.452 188.52,792.298" style="fill:rgb(53,116,145);fill-rule:nonzero;"/>
            <path id="path466" d="M219.372,776.755L215.306,778.977C215.217,779.025 215.124,779.049 215.029,779.049C214.824,779.049 214.625,778.94 214.52,778.747C214.367,778.466 214.47,778.115 214.751,777.961L218.816,775.74C219.096,775.585 219.449,775.689 219.604,775.97C219.756,776.251 219.652,776.602 219.372,776.755" style="fill:rgb(53,116,145);fill-rule:nonzero;"/>
            <path id="path470" d="M196.759,794.93C196.93,794.658 197.286,794.576 197.558,794.746C197.828,794.915 197.911,795.272 197.741,795.543L195.285,799.472C195.175,799.647 194.986,799.745 194.794,799.745C194.689,799.745 194.583,799.716 194.488,799.656C194.216,799.487 194.133,799.128 194.303,798.857L196.759,794.93L196.759,794.93Z" style="fill:rgb(53,116,145);fill-rule:nonzero;"/>
            <path id="path474" d="M211.133,774.125C211.024,774.302 210.835,774.398 210.641,774.398C210.538,774.398 210.43,774.369 210.334,774.309C210.065,774.14 209.983,773.783 210.151,773.512L212.608,769.583C212.775,769.312 213.134,769.229 213.404,769.399C213.676,769.568 213.758,769.927 213.589,770.197L211.133,774.125L211.133,774.125Z" style="fill:rgb(53,116,145);fill-rule:nonzero;"/>
            <path id="path3186" d="M201.408,805.947C201.041,805.948 200.745,806.244 200.744,806.611L200.744,807.633L199.722,807.633C199.357,807.633 199.06,807.93 199.059,808.297C199.06,808.663 199.356,808.96 199.722,808.96L200.744,808.96L200.743,809.981C200.743,810.347 201.04,810.644 201.407,810.645C201.591,810.645 201.758,810.57 201.877,810.451C201.998,810.33 202.072,810.164 202.071,809.981L202.072,808.96L203.093,808.96C203.277,808.96 203.442,808.886 203.562,808.766C203.682,808.646 203.756,808.48 203.756,808.296C203.756,807.929 203.459,807.632 203.093,807.632L202.072,807.633L202.072,806.611C202.072,806.245 201.775,805.948 201.408,805.947" style="fill:rgb(53,116,145);fill-rule:nonzero;"/>
            <path id="path3188" d="M213.408,805.947C213.041,805.948 212.745,806.244 212.744,806.611L212.744,807.633L211.722,807.633C211.357,807.633 211.06,807.93 211.059,808.297C211.06,808.663 211.356,808.96 211.722,808.96L212.744,808.96L212.743,809.981C212.743,810.347 213.04,810.644 213.407,810.645C213.591,810.645 213.758,810.57 213.877,810.451C213.998,810.33 214.072,810.164 214.071,809.981L214.072,808.96L215.093,808.96C215.277,808.96 215.442,808.886 215.562,808.766C215.682,808.646 215.756,808.48 215.756,808.296C215.756,807.929 215.459,807.632 215.093,807.632L214.072,807.633L214.072,806.611C214.072,806.245 213.775,805.948 213.408,805.947" style="fill:rgb(53,116,145);fill-rule:nonzero;"/>
            <path id="path3190" d="M225.408,805.947C225.041,805.948 224.745,806.244 224.744,806.611L224.744,807.633L223.722,807.633C223.357,807.633 223.06,807.93 223.059,808.297C223.06,808.663 223.356,808.96 223.722,808.96L224.744,808.96L224.743,809.981C224.743,810.347 225.04,810.644 225.407,810.645C225.591,810.645 225.758,810.57 225.877,810.451C225.998,810.33 226.072,810.164 226.071,809.981L226.072,808.96L227.093,808.96C227.277,808.96 227.442,808.886 227.562,808.766C227.682,808.646 227.756,808.48 227.756,808.296C227.756,807.929 227.459,807.632 227.093,807.632L226.072,807.633L226.072,806.611C226.072,806.245 225.775,805.948 225.408,805.947" style="fill:rgb(53,116,145);fill-rule:nonzero;"/>
        </g>
    </g>
</svg>
