<?xml version="1.0" encoding="UTF-8" standalone="no"?>
<!DOCTYPE svg PUBLIC "-//W3C//DTD SVG 1.1//EN" "http://www.w3.org/Graphics/SVG/1.1/DTD/svg11.dtd">
<svg width="100%" height="100%" viewBox="0 0 47 48" version="1.1" xmlns="http://www.w3.org/2000/svg" xmlnsXlink="http://www.w3.org/1999/xlink" xmlSpace="preserve" xmlnsSerif="http://www.serif.com/" style="fill-rule:evenodd;clip-rule:evenodd;stroke-linejoin:round;stroke-miterlimit:2;">
    <g transform="matrix(1,0,0,1,-476,-419)">
        <g transform="matrix(1,0,0,1,0,-432.362)">
            <path id="path506" d="M491.874,879.495L514.039,879.495C514.186,879.495 514.34,879.495 514.484,879.51L514.484,879.495C518.104,879.495 521.05,876.55 521.05,872.93C521.05,869.309 518.104,866.364 514.484,866.364C513.97,866.364 513.436,866.432 512.9,866.564C512.725,866.608 512.539,866.576 512.387,866.475C512.237,866.375 512.135,866.217 512.107,866.039C511.375,861.365 507.409,857.974 502.681,857.974C497.412,857.974 493.125,862.26 493.125,867.53C493.125,867.789 493.145,868.045 493.166,868.298C493.18,868.49 493.11,868.679 492.972,868.813C492.836,868.947 492.644,869.012 492.455,868.992C492.264,868.972 492.07,868.959 491.874,868.959C488.969,868.959 486.605,871.323 486.605,874.227C486.605,877.132 488.969,879.495 491.874,879.495M491.837,867.67C491.837,867.623 491.836,867.577 491.836,867.53C491.836,861.55 496.703,856.685 502.681,856.685C507.823,856.685 512.169,860.217 513.258,865.177C513.67,865.109 514.081,865.074 514.484,865.074C518.815,865.074 522.339,868.599 522.339,872.93C522.339,877.262 518.815,880.785 514.48,880.785L491.874,880.785C488.258,880.785 485.316,877.843 485.316,874.227C485.316,870.623 488.238,867.689 491.838,867.67" style="fill:rgb(53,116,145);fill-rule:nonzero;"/>
            <path id="path510" d="M483.978,860.731C484.382,860.731 484.792,860.765 485.204,860.832C486.294,855.873 490.639,852.341 495.781,852.341C498.019,852.341 500.168,853.018 501.996,854.298C502.286,854.503 502.357,854.905 502.153,855.196C501.948,855.488 501.547,855.558 501.254,855.355C499.646,854.226 497.753,853.63 495.781,853.63C491.053,853.63 487.087,857.022 486.354,861.695C486.326,861.875 486.223,862.032 486.073,862.132C485.924,862.232 485.739,862.265 485.562,862.221C485.024,862.087 484.493,862.02 483.978,862.02C480.358,862.02 477.412,864.966 477.412,868.586C477.412,871.962 479.942,874.77 483.296,875.116C483.649,875.153 483.907,875.471 483.871,875.825C483.836,876.156 483.556,876.403 483.229,876.403C483.208,876.403 483.184,876.402 483.163,876.399C479.149,875.984 476.123,872.626 476.123,868.586C476.123,864.254 479.647,860.731 483.978,860.731" style="fill:rgb(53,116,145);fill-rule:nonzero;"/>
            <path id="path3162" d="M491.408,885.947C491.041,885.948 490.745,886.244 490.744,886.611L490.744,887.633L489.722,887.633C489.357,887.633 489.06,887.93 489.059,888.297C489.06,888.663 489.357,888.96 489.722,888.96L490.744,888.96L490.743,889.981C490.743,890.347 491.04,890.644 491.407,890.645C491.591,890.645 491.758,890.57 491.877,890.451C491.998,890.33 492.072,890.164 492.071,889.981L492.072,888.96L493.093,888.96C493.277,888.96 493.442,888.886 493.562,888.766C493.682,888.646 493.756,888.48 493.756,888.296C493.756,887.929 493.459,887.632 493.093,887.632L492.072,887.633L492.072,886.611C492.072,886.245 491.775,885.948 491.408,885.947" style="fill:rgb(53,116,145);fill-rule:nonzero;"/>
            <path id="path3164" d="M503.408,885.947C503.041,885.948 502.745,886.244 502.744,886.611L502.744,887.633L501.722,887.633C501.357,887.633 501.06,887.93 501.059,888.297C501.06,888.663 501.357,888.96 501.722,888.96L502.744,888.96L502.743,889.981C502.743,890.347 503.04,890.644 503.407,890.645C503.591,890.645 503.758,890.57 503.877,890.451C503.998,890.33 504.072,890.164 504.071,889.981L504.072,888.96L505.093,888.96C505.277,888.96 505.442,888.886 505.562,888.766C505.682,888.646 505.756,888.48 505.756,888.296C505.756,887.929 505.459,887.632 505.093,887.632L504.072,887.633L504.072,886.611C504.072,886.245 503.775,885.948 503.408,885.947" style="fill:rgb(53,116,145);fill-rule:nonzero;"/>
            <path id="path3166" d="M515.408,885.947C515.041,885.948 514.745,886.244 514.744,886.611L514.744,887.633L513.722,887.633C513.357,887.633 513.06,887.93 513.059,888.297C513.06,888.663 513.357,888.96 513.722,888.96L514.744,888.96L514.743,889.981C514.743,890.347 515.04,890.644 515.407,890.645C515.591,890.645 515.758,890.57 515.877,890.451C515.998,890.33 516.072,890.164 516.071,889.981L516.072,888.96L517.093,888.96C517.277,888.96 517.442,888.886 517.562,888.766C517.682,888.646 517.756,888.48 517.756,888.296C517.756,887.929 517.459,887.632 517.093,887.632L516.072,887.633L516.072,886.611C516.072,886.245 515.775,885.948 515.408,885.947" style="fill:rgb(53,116,145);fill-rule:nonzero;"/>
            <path id="path3168" d="M485.408,893.947C485.041,893.948 484.745,894.244 484.744,894.611L484.744,895.633L483.722,895.633C483.357,895.633 483.06,895.93 483.059,896.297C483.06,896.663 483.357,896.96 483.722,896.96L484.744,896.96L484.743,897.981C484.743,898.347 485.04,898.644 485.407,898.645C485.591,898.645 485.758,898.57 485.877,898.451C485.998,898.33 486.072,898.164 486.071,897.981L486.072,896.96L487.093,896.96C487.277,896.96 487.442,896.886 487.562,896.766C487.682,896.646 487.756,896.48 487.756,896.296C487.756,895.929 487.459,895.632 487.093,895.632L486.072,895.633L486.072,894.611C486.072,894.245 485.775,893.948 485.408,893.947" style="fill:rgb(53,116,145);fill-rule:nonzero;"/>
            <path id="path3170" d="M497.408,893.947C497.041,893.948 496.745,894.244 496.744,894.611L496.744,895.633L495.722,895.633C495.357,895.633 495.06,895.93 495.059,896.297C495.06,896.663 495.357,896.96 495.722,896.96L496.744,896.96L496.743,897.981C496.743,898.347 497.04,898.644 497.407,898.645C497.591,898.645 497.758,898.57 497.877,898.451C497.998,898.33 498.072,898.164 498.071,897.981L498.072,896.96L499.093,896.96C499.277,896.96 499.442,896.886 499.562,896.766C499.682,896.646 499.756,896.48 499.756,896.296C499.756,895.929 499.459,895.632 499.093,895.632L498.072,895.633L498.072,894.611C498.072,894.245 497.775,893.948 497.408,893.947" style="fill:rgb(53,116,145);fill-rule:nonzero;"/>
            <path id="path3172" d="M509.408,893.947C509.041,893.948 508.745,894.244 508.744,894.611L508.744,895.633L507.722,895.633C507.357,895.633 507.06,895.93 507.059,896.297C507.06,896.663 507.357,896.96 507.722,896.96L508.744,896.96L508.743,897.981C508.743,898.347 509.04,898.644 509.407,898.645C509.591,898.645 509.758,898.57 509.877,898.451C509.998,898.33 510.072,898.164 510.071,897.981L510.072,896.96L511.093,896.96C511.277,896.96 511.442,896.886 511.562,896.766C511.682,896.646 511.756,896.48 511.756,896.296C511.756,895.929 511.459,895.632 511.093,895.632L510.072,895.633L510.072,894.611C510.072,894.245 509.775,893.948 509.408,893.947" style="fill:rgb(53,116,145);fill-rule:nonzero;"/>
        </g>
    </g>
</svg>
