<?xml version="1.0" encoding="UTF-8" standalone="no"?>
<!DOCTYPE svg PUBLIC "-//W3C//DTD SVG 1.1//EN" "http://www.w3.org/Graphics/SVG/1.1/DTD/svg11.dtd">
<svg width="100%" height="100%" viewBox="0 0 44 45" version="1.1" xmlns="http://www.w3.org/2000/svg" xmlnsXlink="http://www.w3.org/1999/xlink" xmlSpace="preserve" xmlnsSerif="http://www.serif.com/" style="fill-rule:evenodd;clip-rule:evenodd;stroke-linejoin:round;stroke-miterlimit:2;">
    <g transform="matrix(1,0,0,1,-94,-155)">
        <g transform="matrix(1,0,0,1,0,-432.362)">
            <path id="path22" d="M116.202,619.877C110.723,619.877 106.267,615.42 106.267,609.941C106.267,604.463 110.723,600.006 116.202,600.006C121.681,600.006 126.137,604.463 126.137,609.941C126.137,615.42 121.681,619.877 116.202,619.877M116.202,598.602C109.95,598.602 104.863,603.688 104.863,609.941C104.863,616.193 109.95,621.281 116.202,621.281C122.453,621.281 127.541,616.193 127.541,609.941C127.541,603.688 122.453,598.602 116.202,598.602" style="fill:rgb(53,116,145);fill-rule:nonzero;"/>
            <path id="path26" d="M116.202,595.278C116.59,595.278 116.903,594.964 116.903,594.576L116.903,588.971C116.903,588.583 116.59,588.269 116.202,588.269C115.815,588.269 115.5,588.583 115.5,588.971L115.5,594.576C115.5,594.964 115.815,595.278 116.202,595.278" style="fill:rgb(53,116,145);fill-rule:nonzero;"/>
            <path id="path30" d="M116.202,624.443C115.815,624.443 115.5,624.757 115.5,625.146L115.5,630.751C115.5,631.138 115.815,631.452 116.202,631.452C116.59,631.452 116.903,631.138 116.903,630.751L116.903,625.146C116.903,624.757 116.59,624.443 116.202,624.443" style="fill:rgb(53,116,145);fill-rule:nonzero;"/>
            <path id="path34" d="M123.88,597.463C123.995,597.534 124.122,597.568 124.249,597.568C124.484,597.568 124.714,597.45 124.846,597.235L127.797,592.469C128,592.139 127.899,591.708 127.57,591.503C127.24,591.299 126.807,591.4 126.604,591.73L123.652,596.498C123.449,596.826 123.55,597.259 123.88,597.463" style="fill:rgb(53,116,145);fill-rule:nonzero;"/>
            <path id="path38" d="M108.525,622.259C108.196,622.055 107.763,622.156 107.559,622.486L104.608,627.253C104.404,627.583 104.506,628.014 104.835,628.219C104.951,628.29 105.078,628.324 105.204,628.324C105.439,628.324 105.669,628.206 105.801,627.991L108.753,623.224C108.956,622.895 108.854,622.463 108.525,622.259" style="fill:rgb(53,116,145);fill-rule:nonzero;"/>
            <path id="path42" d="M129.682,603.366C129.795,603.366 129.907,603.34 130.014,603.284L134.959,600.635C135.301,600.452 135.43,600.027 135.246,599.685C135.064,599.345 134.639,599.215 134.296,599.399L129.351,602.046C129.009,602.229 128.88,602.655 129.064,602.996C129.19,603.232 129.432,603.366 129.682,603.366" style="fill:rgb(53,116,145);fill-rule:nonzero;"/>
            <path id="path46" d="M102.381,616.483L97.434,619.131C97.093,619.314 96.964,619.738 97.146,620.081C97.274,620.317 97.515,620.452 97.766,620.452C97.878,620.452 97.99,620.424 98.096,620.368L103.043,617.721C103.385,617.537 103.514,617.112 103.331,616.769C103.148,616.429 102.724,616.301 102.381,616.483" style="fill:rgb(53,116,145);fill-rule:nonzero;"/>
            <path id="path50" d="M137.104,609.12L137.102,609.12L131.492,609.137C131.104,609.138 130.79,609.453 130.792,609.84C130.793,610.227 131.107,610.54 131.493,610.54L131.495,610.54L137.105,610.524C137.492,610.523 137.806,610.208 137.805,609.82C137.804,609.433 137.49,609.12 137.104,609.12" style="fill:rgb(53,116,145);fill-rule:nonzero;"/>
            <path id="path54" d="M101.605,609.923C101.604,609.536 101.29,609.223 100.902,609.223L100.901,609.223L95.291,609.239C94.903,609.24 94.59,609.556 94.591,609.943C94.592,610.331 94.906,610.643 95.293,610.643L95.295,610.643L100.905,610.627C101.292,610.626 101.605,610.311 101.605,609.923" style="fill:rgb(53,116,145);fill-rule:nonzero;"/>
            <path id="path58" d="M134.891,619.271L129.966,616.579C129.626,616.393 129.199,616.518 129.013,616.858C128.828,617.198 128.953,617.626 129.293,617.811L134.217,620.501C134.324,620.561 134.439,620.588 134.553,620.588C134.801,620.588 135.043,620.456 135.169,620.223C135.356,619.882 135.229,619.456 134.891,619.271" style="fill:rgb(53,116,145);fill-rule:nonzero;"/>
            <path id="path62" d="M103.114,601.903L98.191,599.212C97.851,599.025 97.423,599.15 97.238,599.49C97.052,599.83 97.177,600.258 97.517,600.443L102.441,603.134C102.548,603.193 102.663,603.221 102.777,603.221C103.026,603.221 103.267,603.088 103.394,602.856C103.579,602.516 103.454,602.088 103.114,601.903" style="fill:rgb(53,116,145);fill-rule:nonzero;"/>
            <path id="path66" d="M124.909,622.458C124.704,622.131 124.272,622.03 123.943,622.236C123.614,622.441 123.514,622.875 123.721,623.202L126.694,627.961C126.827,628.173 127.056,628.29 127.289,628.29C127.417,628.29 127.544,628.256 127.661,628.183C127.989,627.978 128.089,627.545 127.884,627.216L124.909,622.458Z" style="fill:rgb(53,116,145);fill-rule:nonzero;"/>
            <path id="path70" d="M107.497,597.256C107.63,597.469 107.86,597.586 108.092,597.586C108.22,597.586 108.349,597.551 108.464,597.48C108.792,597.274 108.892,596.84 108.687,596.513L105.712,591.754C105.507,591.426 105.075,591.325 104.745,591.531C104.416,591.736 104.317,592.17 104.522,592.498L107.497,597.256Z" style="fill:rgb(53,116,145);fill-rule:nonzero;"/>
        </g>
    </g>
</svg>
